<svg xmlns="http://www.w3.org/2000/svg" viewBox="0 0 64 64" width="64" height="64">
  <path fill="#FF6B6B" d="M32,46c-11,0-20-6-20-14c0-8,9-14,20-14s20,6,20,14C52,40,43,46,32,46z"/>
  <path fill="#FF4757" d="M14,32c-6,0-10-8-10-14c0-5,4-8,8-8s8,4,8,8C20,24,18,32,14,32z"/>
  <path fill="#FF4757" d="M50,32c6,0,10-8,10-14c0-5-4-8-8-8s-8,4-8,8C44,24,46,32,50,32z"/>
  <circle cx="14" cy="18" r="4" fill="#2F3542"/>
  <circle cx="50" cy="18" r="4" fill="#2F3542"/>
  <circle cx="26" cy="24" r="3" fill="#FFFFFF"/>
  <circle cx="38" cy="24" r="3" fill="#FFFFFF"/>
  <circle cx="26" cy="24" r="1.5" fill="#2F3542"/>
  <circle cx="38" cy="24" r="1.5" fill="#2F3542"/>
  <path fill="none" stroke="#FF4757" stroke-width="3" stroke-linecap="round" d="M16,38l-8,6 M14,42l-6,8 M18,45l-4,10 M48,38l8,6 M50,42l6,8 M46,45l4,10"/>
</svg>
